<svg width="18" height="18" viewBox="0 0 18 18" fill="none" xmlns="http://www.w3.org/2000/svg">
<path d="M9.8025 7.80753C10.2581 7.17098 10.503 6.40781 10.503 5.62503C10.503 4.84224 10.2581 4.07908 9.8025 3.44253C10.2291 3.15193 10.7338 2.99763 11.25 3.00003C11.9462 3.00003 12.6139 3.27659 13.1062 3.76887C13.5984 4.26116 13.875 4.92883 13.875 5.62503C13.875 6.32122 13.5984 6.9889 13.1062 7.48118C12.6139 7.97347 11.9462 8.25003 11.25 8.25003C10.7338 8.25243 10.2291 8.09813 9.8025 7.80753ZM4.125 5.62503C4.125 5.10585 4.27895 4.59833 4.56739 4.16666C4.85583 3.73498 5.2658 3.39852 5.74546 3.19984C6.22511 3.00116 6.75291 2.94918 7.26211 3.05047C7.77131 3.15175 8.23904 3.40176 8.60616 3.76887C8.97327 4.13599 9.22328 4.60372 9.32456 5.11292C9.42585 5.62212 9.37386 6.14992 9.17518 6.62957C8.9765 7.10923 8.64005 7.5192 8.20837 7.80764C7.77669 8.09607 7.26918 8.25003 6.75 8.25003C6.05381 8.25003 5.38613 7.97347 4.89384 7.48118C4.40156 6.9889 4.125 6.32122 4.125 5.62503ZM5.625 5.62503C5.625 5.84753 5.69098 6.06504 5.8146 6.25004C5.93821 6.43505 6.11391 6.57924 6.31948 6.66439C6.52505 6.74954 6.75125 6.77182 6.96948 6.72841C7.18771 6.685 7.38816 6.57786 7.5455 6.42052C7.70283 6.26319 7.80998 6.06273 7.85338 5.8445C7.89679 5.62628 7.87451 5.40008 7.78936 5.19451C7.70422 4.98894 7.56002 4.81324 7.37502 4.68962C7.19001 4.56601 6.9725 4.50003 6.75 4.50003C6.45163 4.50003 6.16548 4.61855 5.9545 4.82953C5.74353 5.04051 5.625 5.32666 5.625 5.62503ZM12 12.75V14.25H1.5V12.75C1.5 12.75 1.5 9.75003 6.75 9.75003C12 9.75003 12 12.75 12 12.75ZM10.5 12.75C10.395 12.165 9.5025 11.25 6.75 11.25C3.9975 11.25 3.0525 12.2325 3 12.75M11.9625 9.75003C12.4222 10.1076 12.798 10.5614 13.0636 11.0797C13.3292 11.5979 13.4782 12.1681 13.5 12.75V14.25H16.5V12.75C16.5 12.75 16.5 10.0275 11.955 9.75003H11.9625Z" fill="white"/>
</svg>
