<svg width="24" height="24" viewBox="0 0 24 24" fill="none" xmlns="http://www.w3.org/2000/svg">
<rect width="24" height="24" rx="12" fill="#5E4F7D"/>
<path d="M9.72793 6.58936H14.2728C16.0041 6.58936 17.4108 7.99609 17.4108 9.72744V14.2723C17.4108 15.1045 17.0802 15.9027 16.4917 16.4912C15.9032 17.0797 15.105 17.4104 14.2728 17.4104H9.72793C7.99657 17.4104 6.58984 16.0036 6.58984 14.2723V9.72744C6.58984 8.89517 6.92046 8.09699 7.50897 7.50848C8.09747 6.91997 8.89566 6.58936 9.72793 6.58936ZM9.61972 7.67146C9.10314 7.67146 8.60771 7.87667 8.24243 8.24195C7.87716 8.60723 7.67194 9.10265 7.67194 9.61923V14.3805C7.67194 15.4572 8.54303 16.3283 9.61972 16.3283H14.381C14.8975 16.3283 15.393 16.123 15.7582 15.7578C16.1235 15.3925 16.3287 14.8971 16.3287 14.3805V9.61923C16.3287 8.54255 15.4576 7.67146 14.381 7.67146H9.61972ZM14.8409 8.48303C15.0202 8.48303 15.1922 8.55428 15.3191 8.68112C15.4459 8.80795 15.5172 8.97997 15.5172 9.15934C15.5172 9.33871 15.4459 9.51073 15.3191 9.63757C15.1922 9.7644 15.0202 9.83565 14.8409 9.83565C14.6615 9.83565 14.4895 9.7644 14.3626 9.63757C14.2358 9.51073 14.1645 9.33871 14.1645 9.15934C14.1645 8.97997 14.2358 8.80795 14.3626 8.68112C14.4895 8.55428 14.6615 8.48303 14.8409 8.48303ZM12.0003 9.2946C12.7178 9.2946 13.4059 9.57962 13.9132 10.087C14.4206 10.5943 14.7056 11.2824 14.7056 11.9999C14.7056 12.7173 14.4206 13.4054 13.9132 13.9128C13.4059 14.4201 12.7178 14.7051 12.0003 14.7051C11.2829 14.7051 10.5948 14.4201 10.0874 13.9128C9.58011 13.4054 9.29509 12.7173 9.29509 11.9999C9.29509 11.2824 9.58011 10.5943 10.0874 10.087C10.5948 9.57962 11.2829 9.2946 12.0003 9.2946ZM12.0003 10.3767C11.5699 10.3767 11.157 10.5477 10.8526 10.8521C10.5482 11.1565 10.3772 11.5694 10.3772 11.9999C10.3772 12.4303 10.5482 12.8432 10.8526 13.1476C11.157 13.452 11.5699 13.623 12.0003 13.623C12.4308 13.623 12.8437 13.452 13.1481 13.1476C13.4525 12.8432 13.6235 12.4303 13.6235 11.9999C13.6235 11.5694 13.4525 11.1565 13.1481 10.8521C12.8437 10.5477 12.4308 10.3767 12.0003 10.3767Z" fill="white"/>
</svg>
