<svg width="18" height="18" viewBox="0 0 18 18" fill="none" xmlns="http://www.w3.org/2000/svg">
<g clip-path="url(#clip0_2_219)">
<path d="M12 0.75H13.5V1.5H12V0.75ZM16.5 3.75V3H14.25V1.5H13.5V5.25H12V1.5H11.25V3H6.75V1.5H6V5.25H4.5V1.5H3.75V3H1.5V3.75H0.75V16.5H1.5V17.25H16.5V16.5H17.25V3.75H16.5ZM1.5 4.5H2.25V3.75H3.75V5.25H1.5V4.5ZM4.5 16.5H2.25V15.75H1.5V13.5H4.5V16.5ZM4.5 12.75H1.5V9.75H4.5V12.75ZM4.5 9H1.5V6H4.5V9ZM12.75 6V9H9.75V6H12.75ZM12.75 12.75H9.75V9.75H12.75V12.75ZM6.75 3.75H11.25V5.25H6.75V3.75ZM8.25 16.5H5.25V13.5H8.25V16.5ZM8.25 12.75H5.25V9.75H8.25V12.75ZM8.25 9H5.25V6H8.25V9ZM9.75 16.5V13.5H12.75V16.5H9.75ZM16.5 15.75H15.75V16.5H13.5V13.5H16.5V15.75ZM16.5 12.75H13.5V9.75H16.5V12.75ZM16.5 9H13.5V6H16.5V9ZM16.5 5.25H14.25V3.75H15.75V4.5H16.5V5.25ZM4.5 0.75H6V1.5H4.5V0.75Z" fill="white"/>
</g>
<defs>
<clipPath id="clip0_2_219">
<rect width="18" height="18" fill="white"/>
</clipPath>
</defs>
</svg>
